<svg aria-hidden="true" style="position: absolute; width: 0; height: 0; overflow: hidden;" version="1.1" xmlns="http://www.w3.org/2000/svg" xmlns:xlink="http://www.w3.org/1999/xlink">
<defs>
<symbol id="icon-Imie" viewBox="0 0 247 32">
<path fill="#757575" style="fill: var(--color1, #757575)" d="M1.212 6.069h-0.621v-4.707h0.621v4.707zM2.885 2.571l0.016 0.388c0.256-0.302 0.602-0.453 1.038-0.453 0.489 0 0.822 0.188 0.999 0.563 0.116-0.168 0.267-0.304 0.453-0.407 0.187-0.103 0.408-0.155 0.663-0.155 0.767 0 1.157 0.406 1.17 1.219v2.344h-0.598v-2.308c0-0.25-0.057-0.436-0.171-0.559-0.114-0.125-0.306-0.188-0.575-0.188-0.222 0-0.406 0.067-0.553 0.2-0.147 0.131-0.232 0.309-0.255 0.533v2.321h-0.601v-2.292c0-0.509-0.249-0.763-0.747-0.763-0.392 0-0.661 0.167-0.805 0.501v2.554h-0.598v-3.498h0.566zM8.845 6.069h-0.598v-3.498h0.598v3.498zM8.198 1.643c0-0.097 0.029-0.179 0.087-0.246 0.060-0.067 0.149-0.1 0.265-0.1s0.205 0.033 0.265 0.1c0.060 0.067 0.090 0.149 0.090 0.246s-0.030 0.178-0.090 0.242c-0.060 0.065-0.149 0.097-0.265 0.097s-0.205-0.032-0.265-0.097c-0.058-0.065-0.087-0.145-0.087-0.242zM11.323 6.134c-0.474 0-0.86-0.155-1.157-0.466-0.297-0.312-0.446-0.729-0.446-1.251v-0.11c0-0.347 0.066-0.656 0.197-0.928 0.134-0.274 0.319-0.487 0.556-0.64 0.239-0.155 0.498-0.233 0.776-0.233 0.455 0 0.808 0.15 1.060 0.449s0.378 0.728 0.378 1.287v0.249h-2.37c0.009 0.345 0.109 0.624 0.301 0.837 0.194 0.211 0.44 0.317 0.737 0.317 0.211 0 0.39-0.043 0.537-0.129s0.275-0.2 0.385-0.343l0.365 0.284c-0.293 0.45-0.733 0.676-1.319 0.676zM11.248 2.998c-0.241 0-0.444 0.088-0.608 0.265-0.164 0.175-0.265 0.42-0.304 0.737h1.752v-0.045c-0.017-0.304-0.099-0.539-0.246-0.705-0.147-0.168-0.345-0.252-0.595-0.252z"></path>
<path fill="#212121" style="fill: var(--color2, #212121)" d="M11.586 20.966c0.914 0 1.655-0.741 1.655-1.655s-0.741-1.655-1.655-1.655c-0.914 0-1.655 0.741-1.655 1.655s0.741 1.655 1.655 1.655zM11.586 21.793c-1.105 0-3.31 0.554-3.31 1.655v0.414c0 0.228 0.186 0.414 0.414 0.414h5.793c0.228 0 0.414-0.186 0.414-0.414v-0.414c0-1.101-2.206-1.655-3.31-1.655z"></path>
</symbol>
</defs>
</svg>
