<svg aria-hidden="true" style="position: absolute; width: 0; height: 0; overflow: hidden;" version="1.1" xmlns="http://www.w3.org/2000/svg" xmlns:xlink="http://www.w3.org/1999/xlink">
<defs>
<symbol id="icon-close-black-18dp-2-1" viewBox="0 0 32 32">
<path d="M26.667 7.303l-1.97-1.97-7.808 7.808-7.808-7.808-1.97 1.97 7.808 7.808-7.808 7.808 1.97 1.97 7.808-7.808 7.808 7.808 1.97-1.97-7.808-7.808 7.808-7.808z"></path>
</symbol>
<symbol id="icon-Button" viewBox="0 0 115 32">
<path fill="#2196f3" style="fill: var(--color1, #2196f3)" d="M4.414 0h105.931c1.219 0 2.207 0.988 2.207 2.207v23.172c0 1.219-0.988 2.207-2.207 2.207h-105.931c-1.219 0-2.207-0.988-2.207-2.207v-23.172c0-1.219 0.988-2.207 2.207-2.207z"></path>
<path fill="#fff" style="fill: var(--color2, #fff)" d="M49.663 14.741l0.845-4.466h1.289l-1.392 6.276h-1.302l-1.022-4.198-1.022 4.198h-1.302l-1.392-6.276h1.289l0.849 4.457 1.034-4.457h1.095l1.030 4.466zM54.688 14.789l0.862-2.901h1.336l-1.875 5.388-0.103 0.246c-0.279 0.609-0.738 0.914-1.379 0.914-0.181 0-0.365-0.027-0.552-0.082v-0.944l0.19 0.004c0.236 0 0.411-0.036 0.526-0.108 0.118-0.072 0.21-0.191 0.276-0.358l0.147-0.384-1.634-4.677h1.341l0.866 2.901zM60.434 15.263c0-0.152-0.076-0.272-0.228-0.358-0.15-0.089-0.391-0.168-0.724-0.237-1.109-0.233-1.664-0.704-1.664-1.414 0-0.414 0.171-0.759 0.513-1.034 0.345-0.279 0.794-0.418 1.349-0.418 0.592 0 1.065 0.139 1.418 0.418 0.356 0.279 0.535 0.641 0.535 1.086h-1.246c0-0.178-0.057-0.325-0.173-0.44-0.115-0.118-0.295-0.177-0.538-0.177-0.21 0-0.372 0.047-0.487 0.142s-0.173 0.216-0.173 0.362c0 0.138 0.065 0.25 0.194 0.336 0.132 0.083 0.354 0.157 0.664 0.22 0.311 0.060 0.572 0.129 0.785 0.207 0.658 0.241 0.987 0.659 0.987 1.254 0 0.425-0.183 0.77-0.547 1.034-0.365 0.262-0.836 0.392-1.414 0.392-0.391 0-0.738-0.069-1.043-0.207-0.302-0.141-0.539-0.332-0.711-0.573-0.173-0.244-0.259-0.507-0.259-0.789h1.181c0.012 0.221 0.094 0.391 0.246 0.509s0.356 0.177 0.612 0.177c0.238 0 0.418-0.045 0.539-0.134 0.124-0.092 0.185-0.211 0.185-0.358zM59.959 9.931h1.358l-1.194 1.336h-1.013l0.849-1.336zM64.295 16.552h-1.25v-6.621h1.25v6.621zM67.17 16.552h-1.25v-4.664h1.25v4.664zM65.846 10.681c0-0.187 0.062-0.341 0.185-0.461 0.126-0.121 0.297-0.181 0.513-0.181 0.212 0 0.382 0.060 0.509 0.181s0.19 0.274 0.19 0.461c0 0.19-0.065 0.345-0.194 0.466-0.126 0.121-0.295 0.181-0.504 0.181s-0.38-0.060-0.509-0.181c-0.126-0.121-0.19-0.276-0.19-0.466zM70.049 11.888v4.918c0 0.514-0.137 0.914-0.41 1.198-0.273 0.287-0.666 0.431-1.181 0.431-0.216 0-0.421-0.024-0.616-0.073v-0.987c0.149 0.026 0.28 0.039 0.392 0.039 0.377 0 0.565-0.2 0.565-0.599v-4.927h1.25zM68.699 10.681c0-0.187 0.062-0.341 0.185-0.461 0.126-0.121 0.297-0.181 0.513-0.181s0.385 0.060 0.509 0.181c0.126 0.121 0.189 0.274 0.189 0.461 0 0.19-0.065 0.345-0.194 0.466-0.126 0.121-0.295 0.181-0.504 0.181s-0.38-0.060-0.509-0.181c-0.126-0.121-0.19-0.276-0.19-0.466z"></path>
</symbol>
<symbol id="icon-Owiadczam-i-akceptuj-Regulamin-i-Polityk-Prywatnoci" viewBox="0 0 901 32">
<path fill="#757575" style="fill: var(--color3, #757575)" d="M20.141 14.502c0 2.229-0.375 4.177-1.125 5.844-0.75 1.656-1.813 2.922-3.188 3.797s-2.979 1.312-4.812 1.312c-1.792 0-3.38-0.438-4.766-1.312-1.385-0.886-2.464-2.141-3.234-3.766-0.76-1.635-1.151-3.526-1.172-5.672v-1.641c0-2.188 0.38-4.12 1.141-5.797s1.833-2.958 3.219-3.844c1.396-0.896 2.99-1.344 4.781-1.344 1.823 0 3.427 0.443 4.813 1.328 1.396 0.875 2.469 2.151 3.219 3.828 0.75 1.667 1.125 3.609 1.125 5.828v1.438zM17.156 13.034c0-2.698-0.542-4.766-1.625-6.203-1.083-1.448-2.599-2.172-4.547-2.172-1.896 0-3.391 0.724-4.484 2.172-1.083 1.438-1.641 3.438-1.672 6v1.672c0 2.615 0.547 4.672 1.641 6.172 1.104 1.49 2.62 2.234 4.547 2.234 1.938 0 3.438-0.703 4.5-2.109 1.063-1.417 1.609-3.443 1.641-6.078v-1.688zM34.991 20.659c0-0.781-0.297-1.385-0.891-1.813-0.583-0.438-1.609-0.813-3.078-1.125-1.458-0.313-2.62-0.688-3.484-1.125-0.854-0.438-1.49-0.958-1.906-1.563-0.406-0.604-0.609-1.323-0.609-2.156 0-1.385 0.584-2.557 1.75-3.516 1.177-0.958 2.677-1.438 4.5-1.438 1.917 0 3.469 0.495 4.656 1.484 1.198 0.99 1.797 2.255 1.797 3.797h-2.906c0-0.792-0.339-1.474-1.016-2.047-0.666-0.573-1.51-0.859-2.531-0.859-1.052 0-1.875 0.229-2.469 0.688s-0.89 1.057-0.89 1.797c0 0.698 0.276 1.224 0.828 1.578s1.547 0.693 2.984 1.016c1.448 0.323 2.62 0.708 3.515 1.156s1.557 0.99 1.984 1.625c0.438 0.625 0.656 1.391 0.656 2.297 0 1.51-0.604 2.724-1.812 3.641-1.208 0.906-2.776 1.359-4.703 1.359-1.354 0-2.552-0.24-3.594-0.719s-1.859-1.146-2.453-2c-0.583-0.865-0.875-1.797-0.875-2.797h2.891c0.052 0.969 0.438 1.74 1.156 2.313 0.729 0.563 1.688 0.844 2.875 0.844 1.094 0 1.969-0.219 2.625-0.656 0.666-0.448 1-1.042 1-1.781zM33.163 1.143h3.5l-4.187 4.594h-2.328l3.016-4.594zM57.576 21.159l3.25-12.922h2.891l-4.922 16.906h-2.344l-4.109-12.813-4 12.813h-2.344l-4.906-16.906h2.875l3.328 12.656 3.937-12.656h2.328l4.016 12.922zM70.77 25.143h-2.891v-16.906h2.891v16.906zM67.646 3.752c0-0.469 0.141-0.865 0.422-1.188 0.292-0.323 0.719-0.484 1.281-0.484s0.99 0.161 1.281 0.484c0.292 0.323 0.438 0.719 0.438 1.188s-0.146 0.859-0.438 1.172c-0.292 0.313-0.719 0.469-1.281 0.469s-0.99-0.156-1.281-0.469c-0.281-0.313-0.422-0.703-0.422-1.172zM86.809 25.143c-0.167-0.333-0.302-0.927-0.406-1.781-1.344 1.396-2.948 2.094-4.813 2.094-1.666 0-3.036-0.469-4.109-1.406-1.063-0.948-1.594-2.146-1.594-3.594 0-1.76 0.667-3.125 2-4.094 1.344-0.979 3.229-1.469 5.656-1.469h2.813v-1.328c0-1.010-0.302-1.813-0.906-2.406-0.604-0.604-1.495-0.906-2.672-0.906-1.031 0-1.896 0.26-2.594 0.781s-1.047 1.151-1.047 1.891h-2.906c0-0.844 0.297-1.656 0.891-2.438 0.604-0.792 1.417-1.417 2.438-1.875 1.031-0.458 2.161-0.688 3.391-0.688 1.948 0 3.474 0.49 4.578 1.469 1.104 0.969 1.677 2.307 1.719 4.016v7.781c0 1.552 0.198 2.787 0.594 3.703v0.25h-3.031zM82.012 22.94c0.906 0 1.766-0.234 2.578-0.703s1.401-1.078 1.766-1.828v-3.469h-2.266c-3.542 0-5.312 1.036-5.312 3.109 0 0.906 0.302 1.615 0.906 2.125s1.38 0.766 2.328 0.766zM94.034 16.549c0-2.594 0.615-4.677 1.844-6.25 1.229-1.583 2.838-2.375 4.828-2.375 1.979 0 3.547 0.677 4.703 2.031v-8.813h2.891v24h-2.656l-0.141-1.813c-1.156 1.417-2.766 2.125-4.828 2.125-1.958 0-3.557-0.802-4.797-2.406-1.229-1.604-1.844-3.698-1.844-6.281v-0.219zM96.925 16.877c0 1.917 0.396 3.417 1.187 4.5s1.885 1.625 3.281 1.625c1.833 0 3.172-0.823 4.016-2.469v-7.766c-0.865-1.594-2.193-2.391-3.984-2.391-1.417 0-2.521 0.547-3.312 1.641s-1.187 2.714-1.187 4.859zM120.541 23.096c1.031 0 1.932-0.313 2.703-0.938s1.198-1.406 1.281-2.344h2.734c-0.052 0.969-0.386 1.891-1 2.766s-1.438 1.573-2.469 2.094c-1.021 0.521-2.104 0.781-3.25 0.781-2.302 0-4.135-0.765-5.5-2.297-1.354-1.542-2.031-3.646-2.031-6.312v-0.484c0-1.646 0.302-3.109 0.906-4.391s1.469-2.276 2.594-2.984c1.136-0.708 2.474-1.063 4.016-1.063 1.896 0 3.469 0.568 4.719 1.703 1.26 1.135 1.932 2.609 2.016 4.422h-2.734c-0.083-1.094-0.5-1.99-1.25-2.688-0.74-0.708-1.656-1.063-2.75-1.063-1.469 0-2.609 0.531-3.422 1.594-0.802 1.052-1.203 2.578-1.203 4.578v0.547c0 1.948 0.401 3.448 1.203 4.5s1.948 1.578 3.438 1.578zM134.189 22.783h9.891v2.359h-13.422v-2.125l9.328-12.391h-9.187v-2.391h12.812v2.047l-9.422 12.5zM158.742 25.143c-0.167-0.333-0.302-0.927-0.406-1.781-1.344 1.396-2.948 2.094-4.813 2.094-1.667 0-3.036-0.469-4.109-1.406-1.063-0.948-1.594-2.146-1.594-3.594 0-1.76 0.667-3.125 2-4.094 1.344-0.979 3.229-1.469 5.656-1.469h2.813v-1.328c0-1.010-0.302-1.813-0.906-2.406-0.604-0.604-1.495-0.906-2.672-0.906-1.031 0-1.896 0.26-2.594 0.781s-1.047 1.151-1.047 1.891h-2.906c0-0.844 0.297-1.656 0.891-2.438 0.604-0.792 1.417-1.417 2.438-1.875 1.031-0.458 2.161-0.688 3.391-0.688 1.948 0 3.474 0.49 4.578 1.469 1.104 0.969 1.677 2.307 1.719 4.016v7.781c0 1.552 0.198 2.787 0.594 3.703v0.25h-3.031zM153.946 22.94c0.906 0 1.766-0.234 2.578-0.703s1.401-1.078 1.766-1.828v-3.469h-2.266c-3.542 0-5.312 1.036-5.312 3.109 0 0.906 0.302 1.615 0.906 2.125s1.38 0.766 2.328 0.766zM169.39 8.237l0.078 1.875c1.24-1.458 2.912-2.188 5.016-2.188 2.365 0 3.974 0.906 4.828 2.719 0.563-0.813 1.292-1.469 2.188-1.969 0.906-0.5 1.974-0.75 3.203-0.75 3.708 0 5.594 1.964 5.656 5.891v11.328h-2.891v-11.156c0-1.208-0.276-2.109-0.828-2.703-0.552-0.604-1.479-0.906-2.781-0.906-1.073 0-1.963 0.323-2.672 0.969-0.708 0.635-1.12 1.495-1.234 2.578v11.219h-2.906v-11.078c0-2.458-1.203-3.688-3.609-3.688-1.896 0-3.193 0.807-3.891 2.422v12.344h-2.891v-16.906h2.734zM207.732 25.143h-2.891v-16.906h2.891v16.906zM204.607 3.752c0-0.469 0.141-0.865 0.422-1.188 0.292-0.323 0.719-0.484 1.281-0.484s0.99 0.161 1.281 0.484c0.292 0.323 0.438 0.719 0.438 1.188s-0.146 0.859-0.438 1.172c-0.292 0.313-0.719 0.469-1.281 0.469s-0.989-0.156-1.281-0.469c-0.281-0.313-0.422-0.703-0.422-1.172zM216.051 22.783h9.891v2.359h-13.422v-2.125l9.328-12.391h-9.188v-2.391h12.813v2.047l-9.422 12.5zM217.473 3.783c0-0.469 0.141-0.865 0.422-1.188 0.292-0.323 0.719-0.484 1.281-0.484s0.99 0.161 1.281 0.484c0.292 0.323 0.438 0.719 0.438 1.188s-0.146 0.859-0.438 1.172c-0.292 0.313-0.719 0.469-1.281 0.469s-0.989-0.156-1.281-0.469c-0.281-0.313-0.422-0.703-0.422-1.172zM249.502 25.143c-0.167-0.333-0.302-0.927-0.405-1.781-1.344 1.396-2.949 2.094-4.814 2.094-1.666 0-3.035-0.469-4.11-1.406-1.063-0.948-1.593-2.146-1.593-3.594 0-1.76 0.667-3.125 2-4.094 1.344-0.979 3.23-1.469 5.657-1.469h2.811v-1.328c0-1.010-0.302-1.813-0.905-2.406-0.606-0.604-1.495-0.906-2.672-0.906-1.033 0-1.897 0.26-2.594 0.781s-1.047 1.151-1.047 1.891h-2.907c0-0.844 0.297-1.656 0.891-2.438 0.603-0.792 1.417-1.417 2.437-1.875 1.033-0.458 2.162-0.688 3.392-0.688 1.947 0 3.474 0.49 4.578 1.469 1.104 0.969 1.678 2.307 1.719 4.016v7.781c0 1.552 0.197 2.787 0.594 3.703v0.25h-3.033zM244.706 22.94c0.905 0 1.765-0.234 2.578-0.703 0.811-0.469 1.401-1.078 1.765-1.828v-3.469h-2.265c-3.543 0-5.312 1.036-5.312 3.109 0 0.906 0.302 1.615 0.905 2.125s1.381 0.766 2.329 0.766zM262.151 17.315l-1.813 1.891v5.938h-2.891v-24h2.891v14.516l1.545-1.859 5.266-5.563h3.515l-6.578 7.063 7.344 9.844h-3.39l-5.89-7.828zM281.079 23.096c1.031 0 1.931-0.313 2.704-0.938 0.77-0.625 1.198-1.406 1.28-2.344h2.734c-0.050 0.969-0.384 1.891-0.999 2.766s-1.438 1.573-2.469 2.094c-1.022 0.521-2.105 0.781-3.25 0.781-2.302 0-4.135-0.765-5.499-2.297-1.355-1.542-2.032-3.646-2.032-6.312v-0.484c0-1.646 0.302-3.109 0.907-4.391 0.603-1.281 1.467-2.276 2.592-2.984 1.136-0.708 2.475-1.063 4.016-1.063 1.897 0 3.47 0.568 4.72 1.703 1.259 1.135 1.931 2.609 2.014 4.422h-2.734c-0.082-1.094-0.501-1.99-1.25-2.688-0.738-0.708-1.655-1.063-2.75-1.063-1.467 0-2.608 0.531-3.422 1.594-0.802 1.052-1.202 2.578-1.202 4.578v0.547c0 1.948 0.4 3.448 1.202 4.5s1.947 1.578 3.438 1.578zM299.024 25.455c-2.293 0-4.158-0.75-5.595-2.25-1.438-1.51-2.155-3.526-2.155-6.047v-0.531c0-1.677 0.318-3.172 0.953-4.484 0.647-1.323 1.541-2.354 2.688-3.094 1.157-0.75 2.405-1.125 3.749-1.125 2.199 0 3.906 0.724 5.127 2.172 1.218 1.448 1.826 3.521 1.826 6.219v1.203h-11.451c0.041 1.667 0.526 3.016 1.451 4.047 0.939 1.021 2.126 1.531 3.563 1.531 1.022 0 1.886-0.208 2.594-0.625s1.328-0.969 1.858-1.656l1.767 1.375c-1.417 2.177-3.543 3.266-6.375 3.266zM298.663 10.299c-1.166 0-2.144 0.427-2.937 1.281-0.791 0.844-1.28 2.031-1.467 3.563h8.469v-0.219c-0.085-1.469-0.48-2.604-1.189-3.406-0.709-0.813-1.666-1.219-2.875-1.219zM324.217 16.877c0 2.573-0.587 4.646-1.765 6.219s-2.773 2.359-4.782 2.359c-2.053 0-3.666-0.651-4.843-1.953v8.141h-2.891v-23.406h2.64l0.142 1.875c1.177-1.458 2.811-2.188 4.905-2.188 2.032 0 3.637 0.766 4.814 2.297 1.186 1.531 1.781 3.661 1.781 6.391v0.266zM321.328 16.549c0-1.906-0.407-3.411-1.221-4.516-0.811-1.104-1.927-1.656-3.344-1.656-1.749 0-3.061 0.776-3.936 2.328v8.078c0.864 1.542 2.187 2.313 3.968 2.313 1.385 0 2.485-0.547 3.296-1.641 0.823-1.104 1.237-2.74 1.237-4.906zM332.786 4.143v4.094h3.157v2.234h-3.157v10.484c0 0.677 0.142 1.188 0.423 1.531 0.281 0.333 0.761 0.5 1.438 0.5 0.334 0 0.791-0.062 1.374-0.187v2.344c-0.759 0.208-1.499 0.312-2.217 0.312-1.294 0-2.267-0.391-2.923-1.172s-0.983-1.891-0.983-3.328v-10.484h-3.079v-2.234h3.079v-4.094h2.889zM350.731 23.471c-1.125 1.323-2.777 1.984-4.953 1.984-1.801 0-3.177-0.521-4.126-1.563-0.937-1.052-1.41-2.604-1.422-4.656v-11h2.891v10.922c0 2.563 1.042 3.844 3.125 3.844 2.208 0 3.678-0.823 4.407-2.469v-12.297h2.889v16.906h-2.75l-0.062-1.672zM361.895 8.237v18.859c0 3.25-1.474 4.875-4.423 4.875-0.635 0-1.223-0.094-1.765-0.281v-2.313c0.334 0.083 0.77 0.125 1.312 0.125 0.647 0 1.136-0.177 1.47-0.531 0.343-0.344 0.514-0.948 0.514-1.813v-18.922h2.891zM358.706 3.752c0-0.458 0.142-0.849 0.423-1.172 0.29-0.333 0.713-0.5 1.266-0.5 0.562 0 0.987 0.161 1.28 0.484s0.437 0.719 0.437 1.188c0 0.469-0.144 0.859-0.437 1.172s-0.718 0.469-1.28 0.469c-0.565 0-0.985-0.156-1.266-0.469s-0.423-0.703-0.423-1.172zM380.917 22.19c-0.738 1.146-1.707 2-2.905 2.563h0.014l-0.905 0.703c-1.177 0.948-1.765 1.87-1.765 2.766 0 0.75 0.405 1.125 1.218 1.125 0.498 0 1.019-0.136 1.561-0.406l0.203 1.891c-0.729 0.458-1.561 0.688-2.501 0.688-0.926 0-1.659-0.271-2.201-0.813-0.533-0.542-0.798-1.26-0.798-2.156 0-1.125 0.51-2.156 1.531-3.094-2.272-0.042-4.105-0.813-5.499-2.312-1.385-1.51-2.080-3.51-2.080-6v-0.516c0-1.677 0.318-3.172 0.953-4.484 0.647-1.323 1.543-2.354 2.688-3.094 1.157-0.75 2.407-1.125 3.751-1.125 2.197 0 3.906 0.724 5.125 2.172s1.829 3.521 1.829 6.219v1.203h-11.454c0.041 1.667 0.526 3.016 1.454 4.047 0.937 1.021 2.126 1.531 3.561 1.531 1.022 0 1.886-0.208 2.594-0.625s1.328-0.969 1.861-1.656l1.765 1.375zM374.183 10.299c-1.168 0-2.146 0.427-2.937 1.281-0.793 0.844-1.282 2.031-1.47 3.563h8.469v-0.219c-0.082-1.469-0.478-2.604-1.186-3.406-0.709-0.813-1.669-1.219-2.875-1.219zM566.030 25.143h-2.889v-16.906h2.889v16.906zM562.905 3.752c0-0.469 0.142-0.865 0.423-1.188 0.29-0.323 0.718-0.484 1.28-0.484s0.99 0.161 1.282 0.484c0.29 0.323 0.437 0.719 0.437 1.188s-0.146 0.859-0.437 1.172c-0.293 0.313-0.72 0.469-1.282 0.469s-0.99-0.156-1.28-0.469c-0.281-0.313-0.423-0.703-0.423-1.172z"></path>
<path fill="#2196f3" style="fill: var(--color1, #2196f3)" d="M403.15 15.94h-5.344v9.203h-3.015v-22.75h7.531c2.562 0 4.53 0.583 5.906 1.75 1.385 1.167 2.078 2.865 2.078 5.094 0 1.417-0.386 2.651-1.157 3.703-0.761 1.052-1.824 1.839-3.189 2.359l5.344 9.656v0.187h-3.218l-4.937-9.203zM397.806 13.487h4.61c1.488 0 2.672-0.385 3.545-1.156 0.887-0.771 1.328-1.802 1.328-3.094 0-1.406-0.421-2.484-1.264-3.234-0.834-0.75-2.043-1.13-3.625-1.141h-4.594v8.625zM422.048 25.455c-2.293 0-4.158-0.75-5.595-2.25-1.438-1.51-2.155-3.526-2.155-6.047v-0.531c0-1.677 0.318-3.172 0.953-4.484 0.645-1.323 1.541-2.354 2.688-3.094 1.157-0.75 2.405-1.125 3.749-1.125 2.199 0 3.906 0.724 5.125 2.172 1.221 1.448 1.829 3.521 1.829 6.219v1.203h-11.451c0.041 1.667 0.526 3.016 1.451 4.047 0.937 1.021 2.126 1.531 3.563 1.531 1.019 0 1.886-0.208 2.594-0.625s1.328-0.969 1.858-1.656l1.767 1.375c-1.417 2.177-3.543 3.266-6.375 3.266zM421.687 10.299c-1.166 0-2.146 0.427-2.937 1.281-0.791 0.844-1.28 2.031-1.467 3.563h8.469v-0.219c-0.085-1.469-0.48-2.604-1.189-3.406-0.709-0.813-1.666-1.219-2.875-1.219zM432.272 16.549c0-2.635 0.61-4.729 1.829-6.281 1.218-1.563 2.834-2.344 4.843-2.344 2.064 0 3.673 0.729 4.827 2.188l0.142-1.875h2.64v16.5c0 2.187-0.651 3.911-1.952 5.172-1.291 1.26-3.031 1.89-5.218 1.89-1.221 0-2.411-0.26-3.579-0.781-1.166-0.521-2.057-1.234-2.672-2.141l1.499-1.734c1.241 1.531 2.757 2.297 4.549 2.297 1.406 0 2.498-0.396 3.28-1.187 0.793-0.792 1.189-1.906 1.189-3.344v-1.453c-1.157 1.334-2.736 2-4.736 2-1.977 0-3.582-0.797-4.811-2.391-1.218-1.594-1.829-3.766-1.829-6.516zM435.179 16.877c0 1.906 0.391 3.406 1.17 4.5 0.782 1.083 1.877 1.625 3.282 1.625 1.822 0 3.161-0.828 4.016-2.484v-7.719c-0.887-1.615-2.215-2.422-3.984-2.422-1.408 0-2.505 0.547-3.298 1.641-0.791 1.094-1.186 2.714-1.186 4.859zM462.327 23.471c-1.125 1.323-2.777 1.984-4.953 1.984-1.803 0-3.177-0.521-4.126-1.563-0.937-1.052-1.41-2.604-1.422-4.656v-11h2.891v10.922c0 2.563 1.040 3.844 3.125 3.844 2.208 0 3.678-0.823 4.407-2.469v-12.297h2.889v16.906h-2.75l-0.062-1.672zM473.646 25.143h-2.891v-24h2.891v24zM489.685 25.143c-0.167-0.333-0.304-0.927-0.407-1.781-1.344 1.396-2.949 2.094-4.814 2.094-1.666 0-3.035-0.469-4.107-1.406-1.063-0.948-1.595-2.146-1.595-3.594 0-1.76 0.667-3.125 2-4.094 1.344-0.979 3.23-1.469 5.657-1.469h2.811v-1.328c0-1.010-0.302-1.813-0.905-2.406-0.603-0.604-1.495-0.906-2.672-0.906-1.031 0-1.895 0.26-2.594 0.781-0.697 0.521-1.047 1.151-1.047 1.891h-2.905c0-0.844 0.297-1.656 0.889-2.438 0.606-0.792 1.417-1.417 2.439-1.875 1.031-0.458 2.16-0.688 3.39-0.688 1.947 0 3.474 0.49 4.578 1.469 1.104 0.969 1.678 2.307 1.719 4.016v7.781c0 1.552 0.199 2.787 0.594 3.703v0.25h-3.031zM484.887 22.94c0.905 0 1.765-0.234 2.578-0.703 0.811-0.469 1.401-1.078 1.765-1.828v-3.469h-2.265c-3.541 0-5.312 1.036-5.312 3.109 0 0.906 0.302 1.615 0.905 2.125 0.606 0.51 1.381 0.766 2.329 0.766zM500.331 8.237l0.078 1.875c1.239-1.458 2.912-2.188 5.015-2.188 2.366 0 3.975 0.906 4.83 2.719 0.562-0.813 1.291-1.469 2.187-1.969 0.905-0.5 1.973-0.75 3.202-0.75 3.71 0 5.593 1.964 5.657 5.891v11.328h-2.891v-11.156c0-1.208-0.277-2.109-0.827-2.703-0.553-0.604-1.479-0.906-2.782-0.906-1.072 0-1.963 0.323-2.672 0.969-0.709 0.635-1.12 1.495-1.234 2.578v11.219h-2.905v-11.078c0-2.458-1.205-3.688-3.611-3.688-1.895 0-3.191 0.807-3.89 2.422v12.344h-2.889v-16.906h2.734zM529.776 25.143h-2.891v-16.906h2.891v16.906zM526.651 3.752c0-0.469 0.139-0.865 0.421-1.188 0.293-0.323 0.72-0.484 1.282-0.484s0.99 0.161 1.28 0.484c0.293 0.323 0.439 0.719 0.439 1.188s-0.146 0.859-0.439 1.172c-0.29 0.313-0.718 0.469-1.28 0.469s-0.99-0.156-1.282-0.469c-0.281-0.313-0.421-0.703-0.421-1.172zM538.11 8.237l0.094 2.125c1.294-1.625 2.981-2.438 5.063-2.438 3.573 0 5.376 2.016 5.406 6.047v11.172h-2.889v-11.188c-0.011-1.219-0.293-2.12-0.843-2.703-0.542-0.583-1.392-0.875-2.549-0.875-0.937 0-1.76 0.25-2.469 0.75s-1.259 1.156-1.655 1.969v12.047h-2.891v-16.906h2.734zM583.982 16.237v8.906h-2.999v-22.75h8.389c2.491 0 4.439 0.635 5.845 1.906 1.417 1.271 2.126 2.953 2.126 5.047 0 2.208-0.693 3.911-2.078 5.109-1.376 1.188-3.351 1.781-5.922 1.781h-5.36zM583.982 13.783h5.39c1.605 0 2.834-0.375 3.689-1.125 0.853-0.76 1.28-1.854 1.28-3.281 0-1.354-0.427-2.438-1.28-3.25-0.855-0.812-2.027-1.234-3.515-1.266h-5.563v8.922zM600.693 16.534c0-1.656 0.322-3.146 0.969-4.469 0.656-1.323 1.561-2.344 2.718-3.063 1.166-0.719 2.494-1.078 3.984-1.078 2.302 0 4.162 0.797 5.579 2.391 1.426 1.594 2.139 3.714 2.139 6.359v0.203c0 1.646-0.318 3.125-0.953 4.438-0.624 1.302-1.527 2.318-2.704 3.047-1.166 0.729-2.51 1.094-4.030 1.094-2.293 0-4.151-0.797-5.579-2.391-1.415-1.594-2.123-3.703-2.123-6.328v-0.203zM603.598 16.877c0 1.875 0.432 3.38 1.298 4.516 0.873 1.135 2.041 1.703 3.499 1.703 1.467 0 2.635-0.573 3.499-1.719 0.864-1.156 1.296-2.771 1.296-4.844 0-1.854-0.441-3.354-1.328-4.5-0.873-1.156-2.041-1.734-3.499-1.734-1.426 0-2.578 0.568-3.454 1.703-0.873 1.135-1.312 2.76-1.312 4.875zM623.808 25.143h-2.891v-24h2.891v24zM632.549 25.143h-2.889v-16.906h2.889v16.906zM629.424 3.752c0-0.469 0.142-0.865 0.423-1.188 0.29-0.323 0.718-0.484 1.28-0.484s0.99 0.161 1.282 0.484c0.29 0.323 0.437 0.719 0.437 1.188s-0.146 0.859-0.437 1.172c-0.293 0.313-0.72 0.469-1.282 0.469s-0.99-0.156-1.28-0.469c-0.281-0.313-0.423-0.703-0.423-1.172zM642.071 4.143v4.094h3.157v2.234h-3.157v10.484c0 0.677 0.142 1.188 0.423 1.531 0.281 0.333 0.761 0.5 1.438 0.5 0.334 0 0.791-0.062 1.374-0.187v2.344c-0.759 0.208-1.499 0.312-2.217 0.312-1.291 0-2.265-0.391-2.923-1.172-0.656-0.781-0.983-1.891-0.983-3.328v-10.484h-3.079v-2.234h3.079v-4.094h2.889zM655.111 20.908l3.936-12.672h3.095l-6.798 19.516c-1.051 2.813-2.725 4.219-5.015 4.219l-0.546-0.047-1.079-0.203v-2.344l0.782 0.063c0.978 0 1.739-0.198 2.281-0.594 0.551-0.396 1.006-1.12 1.358-2.172l0.642-1.719-6.032-16.719h3.157l4.219 12.672zM670.414 17.315l-1.813 1.891v5.938h-2.891v-24h2.891v14.516l1.547-1.859 5.266-5.563h3.515l-6.578 7.063 7.344 9.844h-3.392l-5.89-7.828zM695.952 22.19c-0.741 1.146-1.707 2-2.907 2.563h0.016l-0.905 0.703c-1.177 0.948-1.767 1.87-1.767 2.766 0 0.75 0.407 1.125 1.221 1.125 0.498 0 1.019-0.136 1.561-0.406l0.203 1.891c-0.729 0.458-1.563 0.688-2.501 0.688-0.926 0-1.662-0.271-2.203-0.813-0.53-0.542-0.795-1.26-0.795-2.156 0-1.125 0.51-2.156 1.531-3.094-2.272-0.042-4.105-0.813-5.502-2.312-1.385-1.51-2.078-3.51-2.078-6v-0.516c0-1.677 0.318-3.172 0.953-4.484 0.647-1.323 1.543-2.354 2.688-3.094 1.157-0.75 2.407-1.125 3.751-1.125 2.197 0 3.906 0.724 5.125 2.172s1.829 3.521 1.829 6.219v1.203h-11.454c0.041 1.667 0.526 3.016 1.454 4.047 0.937 1.021 2.123 1.531 3.561 1.531 1.022 0 1.886-0.208 2.594-0.625s1.328-0.969 1.858-1.656l1.767 1.375zM689.218 10.299c-1.168 0-2.146 0.427-2.939 1.281-0.791 0.844-1.28 2.031-1.467 3.563h8.469v-0.219c-0.082-1.469-0.48-2.604-1.189-3.406-0.706-0.813-1.666-1.219-2.873-1.219zM712.841 16.237v8.906h-3.001v-22.75h8.391c2.489 0 4.439 0.635 5.845 1.906 1.417 1.271 2.123 2.953 2.123 5.047 0 2.208-0.693 3.911-2.078 5.109-1.374 1.188-3.349 1.781-5.922 1.781h-5.358zM712.841 13.783h5.39c1.605 0 2.834-0.375 3.687-1.125 0.855-0.76 1.282-1.854 1.282-3.281 0-1.354-0.427-2.438-1.282-3.25-0.853-0.812-2.025-1.234-3.515-1.266h-5.561v8.922zM738.706 10.83c-0.437-0.073-0.91-0.109-1.422-0.109-1.895 0-3.182 0.807-3.858 2.422v12h-2.891v-16.906h2.814l0.046 1.953c0.949-1.51 2.293-2.266 4.032-2.266 0.562 0 0.99 0.073 1.28 0.219v2.688zM748.151 20.908l3.938-12.672h3.093l-6.795 19.516c-1.054 2.813-2.725 4.219-5.017 4.219l-0.546-0.047-1.079-0.203v-2.344l0.782 0.063c0.981 0 1.739-0.198 2.281-0.594 0.553-0.396 1.006-1.12 1.36-2.172l0.64-1.719-6.030-16.719h3.154l4.219 12.672zM773.705 21.159l3.25-12.922h2.889l-4.921 16.906h-2.343l-4.11-12.813-4 12.813h-2.343l-4.907-16.906h2.875l3.328 12.656 3.938-12.656h2.327l4.016 12.922zM794.197 25.143c-0.167-0.333-0.302-0.927-0.407-1.781-1.344 1.396-2.949 2.094-4.811 2.094-1.669 0-3.038-0.469-4.11-1.406-1.063-0.948-1.593-2.146-1.593-3.594 0-1.76 0.665-3.125 2-4.094 1.342-0.979 3.227-1.469 5.655-1.469h2.814v-1.328c0-1.010-0.304-1.813-0.907-2.406-0.603-0.604-1.495-0.906-2.672-0.906-1.031 0-1.895 0.26-2.594 0.781-0.697 0.521-1.047 1.151-1.047 1.891h-2.905c0-0.844 0.297-1.656 0.891-2.438 0.603-0.792 1.415-1.417 2.437-1.875 1.031-0.458 2.162-0.688 3.39-0.688 1.95 0 3.474 0.49 4.578 1.469 1.104 0.969 1.678 2.307 1.719 4.016v7.781c0 1.552 0.199 2.787 0.594 3.703v0.25h-3.031zM789.399 22.94c0.907 0 1.767-0.234 2.578-0.703 0.814-0.469 1.401-1.078 1.767-1.828v-3.469h-2.267c-3.541 0-5.312 1.036-5.312 3.109 0 0.906 0.302 1.615 0.907 2.125 0.603 0.51 1.378 0.766 2.327 0.766zM806.048 4.143v4.094h3.154v2.234h-3.154v10.484c0 0.677 0.139 1.188 0.421 1.531 0.281 0.333 0.761 0.5 1.438 0.5 0.334 0 0.791-0.062 1.376-0.187v2.344c-0.761 0.208-1.502 0.312-2.219 0.312-1.291 0-2.265-0.391-2.921-1.172-0.658-0.781-0.985-1.891-0.985-3.328v-10.484h-3.079v-2.234h3.079v-4.094h2.891zM816.288 8.237l0.094 2.125c1.291-1.625 2.978-2.438 5.063-2.438 3.573 0 5.374 2.016 5.406 6.047v11.172h-2.889v-11.188c-0.011-1.219-0.293-2.12-0.846-2.703-0.542-0.583-1.39-0.875-2.546-0.875-0.937 0-1.76 0.25-2.469 0.75s-1.259 1.156-1.657 1.969v12.047h-2.889v-16.906h2.734zM831.403 16.534c0-1.656 0.325-3.146 0.969-4.469 0.656-1.323 1.563-2.344 2.72-3.063 1.166-0.719 2.494-1.078 3.984-1.078 2.302 0 4.16 0.797 5.577 2.391 1.429 1.594 2.142 3.714 2.142 6.359v0.203c0 1.646-0.318 3.125-0.953 4.438-0.626 1.302-1.527 2.318-2.704 3.047-1.166 0.729-2.51 1.094-4.030 1.094-2.293 0-4.153-0.797-5.579-2.391-1.417-1.594-2.126-3.703-2.126-6.328v-0.203zM834.311 16.877c0 1.875 0.432 3.38 1.296 4.516 0.875 1.135 2.043 1.703 3.502 1.703 1.467 0 2.635-0.573 3.499-1.719 0.864-1.156 1.296-2.771 1.296-4.844 0-1.854-0.443-3.354-1.328-4.5-0.875-1.156-2.041-1.734-3.499-1.734-1.426 0-2.578 0.568-3.454 1.703s-1.312 2.76-1.312 4.875zM861.223 20.659c0-0.781-0.295-1.385-0.889-1.813-0.583-0.438-1.609-0.813-3.079-1.125-1.458-0.313-2.619-0.688-3.483-1.125-0.855-0.438-1.49-0.958-1.906-1.563-0.407-0.604-0.61-1.323-0.61-2.156 0-1.385 0.583-2.557 1.751-3.516 1.177-0.958 2.677-1.438 4.498-1.438 1.918 0 3.47 0.495 4.658 1.484 1.198 0.99 1.797 2.255 1.797 3.797h-2.907c0-0.792-0.338-1.474-1.015-2.047-0.667-0.573-1.511-0.859-2.533-0.859-1.051 0-1.874 0.229-2.469 0.688-0.592 0.458-0.889 1.057-0.889 1.797 0 0.698 0.274 1.224 0.827 1.578s1.547 0.693 2.985 1.016c1.447 0.323 2.619 0.708 3.515 1.156s1.557 0.99 1.984 1.625c0.437 0.625 0.656 1.391 0.656 2.297 0 1.51-0.603 2.724-1.813 3.641-1.209 0.906-2.775 1.359-4.704 1.359-1.353 0-2.551-0.24-3.593-0.719s-1.858-1.146-2.453-2c-0.583-0.865-0.875-1.797-0.875-2.797h2.891c0.053 0.969 0.437 1.74 1.157 2.313 0.729 0.563 1.687 0.844 2.873 0.844 1.095 0 1.97-0.219 2.626-0.656 0.667-0.448 0.999-1.042 0.999-1.781zM859.397 1.143h3.499l-4.187 4.594h-2.329l3.017-4.594zM875.621 23.096c1.031 0 1.934-0.313 2.704-0.938s1.198-1.406 1.28-2.344h2.736c-0.053 0.969-0.386 1.891-1.001 2.766s-1.438 1.573-2.469 2.094c-1.019 0.521-2.103 0.781-3.25 0.781-2.302 0-4.135-0.765-5.499-2.297-1.353-1.542-2.032-3.646-2.032-6.312v-0.484c0-1.646 0.304-3.109 0.907-4.391s1.467-2.276 2.594-2.984c1.134-0.708 2.473-1.063 4.014-1.063 1.897 0 3.47 0.568 4.72 1.703 1.259 1.135 1.931 2.609 2.016 4.422h-2.736c-0.082-1.094-0.498-1.99-1.248-2.688-0.741-0.708-1.657-1.063-2.752-1.063-1.467 0-2.608 0.531-3.422 1.594-0.802 1.052-1.202 2.578-1.202 4.578v0.547c0 1.948 0.4 3.448 1.202 4.5s1.95 1.578 3.438 1.578zM889.691 25.143h-2.891v-16.906h2.891v16.906zM886.565 3.752c0-0.469 0.142-0.865 0.423-1.188 0.293-0.323 0.718-0.484 1.282-0.484 0.562 0 0.99 0.161 1.28 0.484 0.293 0.323 0.439 0.719 0.439 1.188s-0.146 0.859-0.439 1.172c-0.29 0.313-0.718 0.469-1.28 0.469-0.565 0-0.99-0.156-1.282-0.469-0.281-0.313-0.423-0.703-0.423-1.172zM895.353 23.627c0-0.5 0.146-0.917 0.439-1.25 0.302-0.333 0.75-0.5 1.344-0.5 0.592 0 1.040 0.167 1.342 0.5 0.313 0.333 0.471 0.75 0.471 1.25 0 0.479-0.158 0.88-0.471 1.203-0.302 0.323-0.75 0.484-1.342 0.484-0.594 0-1.042-0.161-1.344-0.484-0.293-0.323-0.439-0.724-0.439-1.203z"></path>
<path fill="#2196f3" style="fill: var(--color1, #2196f3)" d="M392.165 28.268h159.641v1.563h-159.641v-1.563zM578.341 28.268h323.184v1.563h-323.184v-1.563z"></path>
</symbol>
<symbol id="icon-Vector-2" viewBox="0 0 43 32">
<path d="M37.333 0h-32c-2.2 0-3.98 1.8-3.98 4l-0.020 24c0 2.2 1.8 4 4 4h32c2.2 0 4-1.8 4-4v-24c0-2.2-1.8-4-4-4zM36.533 8.5l-14.14 8.84c-0.64 0.4-1.48 0.4-2.12 0l-14.14-8.84c-0.5-0.32-0.8-0.86-0.8-1.44 0-1.34 1.46-2.14 2.6-1.44l13.4 8.38 13.4-8.38c1.14-0.7 2.6 0.1 2.6 1.44 0 0.58-0.3 1.12-0.8 1.44z"></path>
</symbol>
<symbol id="icon-Vector-1" viewBox="0 0 32 32">
<path d="M27.419 20.852l-4.201-0.48c-1.009-0.116-2.002 0.232-2.713 0.943l-3.044 3.044c-4.681-2.382-8.519-6.203-10.901-10.901l3.060-3.060c0.711-0.711 1.059-1.704 0.943-2.713l-0.48-4.168c-0.198-1.671-1.604-2.928-3.292-2.928h-2.862c-1.869 0-3.424 1.555-3.308 3.424 0.877 14.126 12.174 25.407 26.284 26.284 1.869 0.116 3.424-1.439 3.424-3.308v-2.861c0.016-1.671-1.241-3.077-2.911-3.275z"></path>
</symbol>
<symbol id="icon-Vector" viewBox="0 0 32 32">
<path d="M16 16c4.42 0 8-3.58 8-8s-3.58-8-8-8c-4.42 0-8 3.58-8 8s3.58 8 8 8zM16 20c-5.34 0-16 2.68-16 8v2c0 1.1 0.9 2 2 2h28c1.1 0 2-0.9 2-2v-2c0-5.32-10.66-8-16-8z"></path>
</symbol>
</defs>
</svg>
